<mxfile host="app.diagrams.net" modified="2022-06-10T04:23:05.279Z" agent="5.0 (Windows NT 10.0; Win64; x64) AppleWebKit/537.36 (KHTML, like Gecko) Chrome/102.0.5005.63 Safari/537.36" etag="EsIweTm_khqlBexEiL1M" version="19.0.3" type="github">
  <diagram id="C5RBs43oDa-KdzZeNtuy" name="Page-1">
    <mxGraphModel dx="2942" dy="1065" grid="1" gridSize="10" guides="1" tooltips="1" connect="1" arrows="1" fold="1" page="1" pageScale="1" pageWidth="827" pageHeight="1169" math="0" shadow="0">
      <root>
        <mxCell id="WIyWlLk6GJQsqaUBKTNV-0" />
        <mxCell id="WIyWlLk6GJQsqaUBKTNV-1" parent="WIyWlLk6GJQsqaUBKTNV-0" />
        <mxCell id="xCEsaPnjrMW9Z6WD0gdk-0" value="Start" style="ellipse;whiteSpace=wrap;html=1;" vertex="1" parent="WIyWlLk6GJQsqaUBKTNV-1">
          <mxGeometry x="354" y="50" width="120" height="80" as="geometry" />
        </mxCell>
        <mxCell id="xCEsaPnjrMW9Z6WD0gdk-1" value="List&amp;lt;User&amp;gt; listUsers = new List&amp;lt;User&amp;gt;();" style="rounded=0;whiteSpace=wrap;html=1;" vertex="1" parent="WIyWlLk6GJQsqaUBKTNV-1">
          <mxGeometry x="354" y="200" width="120" height="60" as="geometry" />
        </mxCell>
        <mxCell id="xCEsaPnjrMW9Z6WD0gdk-4" value="" style="endArrow=classic;html=1;rounded=0;" edge="1" parent="WIyWlLk6GJQsqaUBKTNV-1">
          <mxGeometry width="50" height="50" relative="1" as="geometry">
            <mxPoint x="414" y="130" as="sourcePoint" />
            <mxPoint x="414" y="200" as="targetPoint" />
          </mxGeometry>
        </mxCell>
        <mxCell id="xCEsaPnjrMW9Z6WD0gdk-5" value="" style="endArrow=classic;html=1;rounded=0;" edge="1" parent="WIyWlLk6GJQsqaUBKTNV-1">
          <mxGeometry width="50" height="50" relative="1" as="geometry">
            <mxPoint x="413" y="260" as="sourcePoint" />
            <mxPoint x="413" y="330" as="targetPoint" />
          </mxGeometry>
        </mxCell>
        <mxCell id="xCEsaPnjrMW9Z6WD0gdk-6" value="listUsers.Add(new User() { Name = &quot;Иван&quot;,Login=Guid.NewGuid().ToString().Substring(1,7),IsPremium=true});" style="rounded=0;whiteSpace=wrap;html=1;" vertex="1" parent="WIyWlLk6GJQsqaUBKTNV-1">
          <mxGeometry x="220" y="330" width="416" height="60" as="geometry" />
        </mxCell>
        <mxCell id="xCEsaPnjrMW9Z6WD0gdk-7" value="" style="endArrow=classic;html=1;rounded=0;" edge="1" parent="WIyWlLk6GJQsqaUBKTNV-1">
          <mxGeometry width="50" height="50" relative="1" as="geometry">
            <mxPoint x="414" y="390" as="sourcePoint" />
            <mxPoint x="414" y="460" as="targetPoint" />
          </mxGeometry>
        </mxCell>
        <mxCell id="xCEsaPnjrMW9Z6WD0gdk-8" value="listUsers.Add(new User() { Name = &quot;Владимир&quot;, Login = Guid.NewGuid().ToString().Substring(1, 7), IsPremium = false });" style="rounded=0;whiteSpace=wrap;html=1;" vertex="1" parent="WIyWlLk6GJQsqaUBKTNV-1">
          <mxGeometry x="220" y="460" width="410" height="60" as="geometry" />
        </mxCell>
        <mxCell id="xCEsaPnjrMW9Z6WD0gdk-9" value="" style="endArrow=classic;html=1;rounded=0;" edge="1" parent="WIyWlLk6GJQsqaUBKTNV-1">
          <mxGeometry width="50" height="50" relative="1" as="geometry">
            <mxPoint x="413" y="520" as="sourcePoint" />
            <mxPoint x="413" y="590" as="targetPoint" />
          </mxGeometry>
        </mxCell>
        <mxCell id="xCEsaPnjrMW9Z6WD0gdk-15" style="edgeStyle=orthogonalEdgeStyle;rounded=0;orthogonalLoop=1;jettySize=auto;html=1;" edge="1" parent="WIyWlLk6GJQsqaUBKTNV-1" source="xCEsaPnjrMW9Z6WD0gdk-10">
          <mxGeometry relative="1" as="geometry">
            <mxPoint x="430" y="980" as="targetPoint" />
          </mxGeometry>
        </mxCell>
        <mxCell id="xCEsaPnjrMW9Z6WD0gdk-10" value="foreach (var item in listUsers)" style="shape=hexagon;perimeter=hexagonPerimeter2;whiteSpace=wrap;html=1;fixedSize=1;align=center;horizontal=1;verticalAlign=top;" vertex="1" parent="WIyWlLk6GJQsqaUBKTNV-1">
          <mxGeometry x="90" y="590" width="680" height="310" as="geometry" />
        </mxCell>
        <mxCell id="xCEsaPnjrMW9Z6WD0gdk-11" value="if (!item.IsPremium)" style="rhombus;whiteSpace=wrap;html=1;verticalAlign=top;align=center;" vertex="1" parent="WIyWlLk6GJQsqaUBKTNV-1">
          <mxGeometry x="310" y="630" width="203" height="200" as="geometry" />
        </mxCell>
        <mxCell id="xCEsaPnjrMW9Z6WD0gdk-13" value="Console.Write(item.Name +&quot; &quot;);" style="shape=parallelogram;perimeter=parallelogramPerimeter;whiteSpace=wrap;html=1;fixedSize=1;" vertex="1" parent="WIyWlLk6GJQsqaUBKTNV-1">
          <mxGeometry x="351.5" y="680" width="120" height="80" as="geometry" />
        </mxCell>
        <mxCell id="xCEsaPnjrMW9Z6WD0gdk-14" value="ShowAds();" style="rounded=0;whiteSpace=wrap;html=1;" vertex="1" parent="WIyWlLk6GJQsqaUBKTNV-1">
          <mxGeometry x="383.25" y="735" width="56.5" height="20" as="geometry" />
        </mxCell>
        <mxCell id="xCEsaPnjrMW9Z6WD0gdk-16" value="Finish" style="ellipse;whiteSpace=wrap;html=1;" vertex="1" parent="WIyWlLk6GJQsqaUBKTNV-1">
          <mxGeometry x="368" y="980" width="120" height="80" as="geometry" />
        </mxCell>
      </root>
    </mxGraphModel>
  </diagram>
</mxfile>
